<mxfile host="65bd71144e">
    <diagram id="kgxfiooVcBWXgskr29rT" name="Page-1">
        <mxGraphModel dx="292" dy="414" grid="1" gridSize="10" guides="1" tooltips="1" connect="1" arrows="1" fold="1" page="1" pageScale="1" pageWidth="850" pageHeight="1100" math="1" shadow="0">
            <root>
                <mxCell id="0"/>
                <mxCell id="1" parent="0"/>
                <mxCell id="4" value="" style="rounded=0;whiteSpace=wrap;html=1;" vertex="1" parent="1">
                    <mxGeometry x="180" y="330" width="210" height="110" as="geometry"/>
                </mxCell>
                <mxCell id="5" value="" style="ellipse;whiteSpace=wrap;html=1;" vertex="1" parent="1">
                    <mxGeometry x="310" y="340" width="70" height="70" as="geometry"/>
                </mxCell>
                <mxCell id="7" value="" style="verticalLabelPosition=bottom;aspect=fixed;html=1;verticalAlign=top;fillColor=strokeColor;align=center;outlineConnect=0;shape=mxgraph.fluid_power.x10760;points=[[0.445,0.01,0],[0.555,0.01,0],[0.445,1,0],[0.555,1,0],[0,0.5,0],[0,0.625,0],[0,0.75,0],[1,0.5,0],[1,0.625,0],[1,0.75,0]];sketch=1;" vertex="1" parent="1">
                    <mxGeometry x="190" y="340" width="66.88" height="30" as="geometry"/>
                </mxCell>
                <mxCell id="8" value="" style="verticalLabelPosition=bottom;aspect=fixed;html=1;verticalAlign=top;fillColor=strokeColor;align=center;outlineConnect=0;shape=mxgraph.fluid_power.x10760;points=[[0.445,0.01,0],[0.555,0.01,0],[0.445,1,0],[0.555,1,0],[0,0.5,0],[0,0.625,0],[0,0.75,0],[1,0.5,0],[1,0.625,0],[1,0.75,0]];sketch=1;" vertex="1" parent="1">
                    <mxGeometry x="205" y="380" width="36.88" height="16.54" as="geometry"/>
                </mxCell>
            </root>
        </mxGraphModel>
    </diagram>
</mxfile>